# xmcd
#
# Track frame offsets: 
#        150
#        5300
#        23632
#        39605
#        53250
#        72415
#        93760
#        115152
#        135822
#
# Disc length: 2010 seconds
#
# Revision: 10
# Processed by: cddbd v1.5.2PL0 Copyright (c) Steve Scherf et al.
# Submitted via: ExactAudioCopy v1.3
#
DISCID=5d07d809
DTITLE=Van Halen - 1984
DYEAR=1984
DGENRE=Rock
TTITLE0=1984
TTITLE1=Jump
TTITLE2=Panama
TTITLE3=Top Jimmy
TTITLE4=Drop Dead Legs
TTITLE5=Hot for Teacher
TTITLE6=I'll Wait
TTITLE7=Girl Gone Bad
TTITLE8=House of Pain
EXTD=Warner Remasters Series [HDCD] YEAR: 1983
EXTT0=
EXTT1=
EXTT2=
EXTT3=
EXTT4=
EXTT5=
EXTT6=
EXTT7=
EXTT8=
PLAYORDER=
